<mxfile host="app.diagrams.net" agent="Mozilla/5.0 (Windows NT 10.0; Win64; x64) AppleWebKit/537.36 (KHTML, like Gecko) Chrome/136.0.0.0 Safari/537.36" version="26.3.0">
  <diagram name="Page-1" id="2a216829-ef6e-dabb-86c1-c78162f3ba2b">
    <mxGraphModel dx="2081" dy="1021" grid="1" gridSize="10" guides="1" tooltips="1" connect="1" arrows="1" fold="1" page="1" pageScale="1" pageWidth="850" pageHeight="1100" background="none" math="0" shadow="0">
      <root>
        <mxCell id="0" />
        <mxCell id="1" parent="0" />
        <mxCell id="7a84cebc1def654-1" value="" style="shape=mxgraph.bpmn.shape;html=1;verticalLabelPosition=bottom;labelBackgroundColor=#ffffff;verticalAlign=top;perimeter=ellipsePerimeter;outline=standard;symbol=general;" parent="1" vertex="1">
          <mxGeometry x="260" y="255" width="50" height="50" as="geometry" />
        </mxCell>
        <mxCell id="7a84cebc1def654-2" value="Navegación" style="shape=ext;rounded=1;html=1;whiteSpace=wrap;" parent="1" vertex="1">
          <mxGeometry x="360" y="240" width="120" height="80" as="geometry" />
        </mxCell>
        <mxCell id="7a84cebc1def654-36" style="edgeStyle=orthogonalEdgeStyle;rounded=0;html=1;jettySize=auto;orthogonalLoop=1;" parent="1" source="7a84cebc1def654-1" target="7a84cebc1def654-2" edge="1">
          <mxGeometry relative="1" as="geometry" />
        </mxCell>
        <mxCell id="7a84cebc1def654-39" style="edgeStyle=orthogonalEdgeStyle;rounded=0;html=1;jettySize=auto;orthogonalLoop=1;" parent="1" source="7a84cebc1def654-2" edge="1">
          <mxGeometry relative="1" as="geometry">
            <mxPoint x="530" y="280" as="targetPoint" />
          </mxGeometry>
        </mxCell>
        <mxCell id="igWhySHWdOsPGfB4_8ew-43" style="edgeStyle=orthogonalEdgeStyle;rounded=0;orthogonalLoop=1;jettySize=auto;html=1;" parent="1" source="igWhySHWdOsPGfB4_8ew-24" edge="1">
          <mxGeometry relative="1" as="geometry">
            <mxPoint x="330" y="280" as="targetPoint" />
            <Array as="points">
              <mxPoint x="595" y="640" />
              <mxPoint x="330" y="640" />
            </Array>
          </mxGeometry>
        </mxCell>
        <mxCell id="igWhySHWdOsPGfB4_8ew-42" style="edgeStyle=orthogonalEdgeStyle;rounded=0;orthogonalLoop=1;jettySize=auto;html=1;entryX=0.5;entryY=0;entryDx=0;entryDy=0;" parent="1" source="igWhySHWdOsPGfB4_8ew-29" target="igWhySHWdOsPGfB4_8ew-24" edge="1">
          <mxGeometry relative="1" as="geometry" />
        </mxCell>
        <mxCell id="igWhySHWdOsPGfB4_8ew-29" value="Acceder" style="shape=ext;rounded=1;html=1;whiteSpace=wrap;" parent="1" vertex="1">
          <mxGeometry x="535" y="240" width="120" height="80" as="geometry" />
        </mxCell>
        <mxCell id="6vr_r3bITFx_196oS220-11" value="Pool" style="swimlane;childLayout=stackLayout;resizeParent=1;resizeParentMax=0;horizontal=1;startSize=20;horizontalStack=0;html=1;" vertex="1" parent="1">
          <mxGeometry x="217.5" y="180" width="2152.5" height="1130" as="geometry" />
        </mxCell>
        <mxCell id="6vr_r3bITFx_196oS220-12" value="Navegación" style="swimlane;startSize=20;horizontal=0;html=1;" vertex="1" parent="6vr_r3bITFx_196oS220-11">
          <mxGeometry y="20" width="2152.5" height="240" as="geometry" />
        </mxCell>
        <mxCell id="6vr_r3bITFx_196oS220-13" value="Autenticación" style="swimlane;startSize=20;horizontal=0;html=1;" vertex="1" parent="6vr_r3bITFx_196oS220-11">
          <mxGeometry y="260" width="2152.5" height="450" as="geometry" />
        </mxCell>
        <mxCell id="igWhySHWdOsPGfB4_8ew-31" style="edgeStyle=orthogonalEdgeStyle;rounded=0;orthogonalLoop=1;jettySize=auto;html=1;entryX=0;entryY=0.5;entryDx=0;entryDy=0;" parent="6vr_r3bITFx_196oS220-13" source="7a84cebc1def654-29" target="igWhySHWdOsPGfB4_8ew-30" edge="1">
          <mxGeometry relative="1" as="geometry" />
        </mxCell>
        <mxCell id="7a84cebc1def654-29" value="Ingresar" style="html=1;whiteSpace=wrap;rounded=1;" parent="6vr_r3bITFx_196oS220-13" vertex="1">
          <mxGeometry x="647.5" y="70" width="120" height="80" as="geometry" />
        </mxCell>
        <mxCell id="igWhySHWdOsPGfB4_8ew-23" style="edgeStyle=orthogonalEdgeStyle;rounded=0;orthogonalLoop=1;jettySize=auto;html=1;entryX=0;entryY=0.5;entryDx=0;entryDy=0;" parent="6vr_r3bITFx_196oS220-13" target="igWhySHWdOsPGfB4_8ew-22" edge="1">
          <mxGeometry relative="1" as="geometry">
            <mxPoint x="417.5" y="110" as="sourcePoint" />
          </mxGeometry>
        </mxCell>
        <mxCell id="igWhySHWdOsPGfB4_8ew-8" style="edgeStyle=orthogonalEdgeStyle;rounded=0;orthogonalLoop=1;jettySize=auto;html=1;" parent="6vr_r3bITFx_196oS220-13" edge="1">
          <mxGeometry relative="1" as="geometry">
            <mxPoint x="647.5" y="110" as="targetPoint" />
            <mxPoint x="577.4411764705883" y="110.05882352941182" as="sourcePoint" />
          </mxGeometry>
        </mxCell>
        <mxCell id="igWhySHWdOsPGfB4_8ew-6" value="No" style="text;html=1;align=center;verticalAlign=middle;resizable=0;points=[];autosize=1;strokeColor=none;fillColor=none;" parent="6vr_r3bITFx_196oS220-13" vertex="1">
          <mxGeometry x="387.5" y="138" width="40" height="30" as="geometry" />
        </mxCell>
        <mxCell id="igWhySHWdOsPGfB4_8ew-33" style="edgeStyle=orthogonalEdgeStyle;rounded=0;orthogonalLoop=1;jettySize=auto;html=1;entryX=0;entryY=0.5;entryDx=0;entryDy=0;" parent="6vr_r3bITFx_196oS220-13" source="igWhySHWdOsPGfB4_8ew-9" target="igWhySHWdOsPGfB4_8ew-30" edge="1">
          <mxGeometry relative="1" as="geometry" />
        </mxCell>
        <mxCell id="igWhySHWdOsPGfB4_8ew-9" value="Registrarse" style="html=1;whiteSpace=wrap;rounded=1;" parent="6vr_r3bITFx_196oS220-13" vertex="1">
          <mxGeometry x="647.5" y="180" width="120" height="80" as="geometry" />
        </mxCell>
        <mxCell id="igWhySHWdOsPGfB4_8ew-11" value="Si" style="text;html=1;align=center;verticalAlign=middle;resizable=0;points=[];autosize=1;strokeColor=none;fillColor=none;" parent="6vr_r3bITFx_196oS220-13" vertex="1">
          <mxGeometry x="417.5" y="80" width="30" height="30" as="geometry" />
        </mxCell>
        <mxCell id="igWhySHWdOsPGfB4_8ew-12" value="Si" style="text;html=1;align=center;verticalAlign=middle;resizable=0;points=[];autosize=1;strokeColor=none;fillColor=none;" parent="6vr_r3bITFx_196oS220-13" vertex="1">
          <mxGeometry x="577.5" y="80" width="30" height="30" as="geometry" />
        </mxCell>
        <mxCell id="igWhySHWdOsPGfB4_8ew-13" value="No" style="text;html=1;align=center;verticalAlign=middle;resizable=0;points=[];autosize=1;strokeColor=none;fillColor=none;" parent="6vr_r3bITFx_196oS220-13" vertex="1">
          <mxGeometry x="547.5" y="138" width="40" height="30" as="geometry" />
        </mxCell>
        <mxCell id="igWhySHWdOsPGfB4_8ew-37" style="edgeStyle=orthogonalEdgeStyle;rounded=0;orthogonalLoop=1;jettySize=auto;html=1;" parent="6vr_r3bITFx_196oS220-13" source="igWhySHWdOsPGfB4_8ew-17" edge="1">
          <mxGeometry relative="1" as="geometry">
            <mxPoint x="457.5" y="110" as="targetPoint" />
            <Array as="points">
              <mxPoint x="1172.5" y="270" />
              <mxPoint x="458.5" y="270" />
            </Array>
          </mxGeometry>
        </mxCell>
        <mxCell id="igWhySHWdOsPGfB4_8ew-17" value="Respuesta&lt;div&gt;Satisfactoria&lt;/div&gt;" style="rhombus;whiteSpace=wrap;html=1;" parent="6vr_r3bITFx_196oS220-13" vertex="1">
          <mxGeometry x="1117.5" y="113" width="110" height="100" as="geometry" />
        </mxCell>
        <mxCell id="igWhySHWdOsPGfB4_8ew-28" style="edgeStyle=orthogonalEdgeStyle;rounded=0;orthogonalLoop=1;jettySize=auto;html=1;entryX=0;entryY=0.5;entryDx=0;entryDy=0;" parent="6vr_r3bITFx_196oS220-13" source="igWhySHWdOsPGfB4_8ew-22" target="igWhySHWdOsPGfB4_8ew-9" edge="1">
          <mxGeometry relative="1" as="geometry">
            <Array as="points">
              <mxPoint x="542.5" y="220" />
            </Array>
          </mxGeometry>
        </mxCell>
        <mxCell id="igWhySHWdOsPGfB4_8ew-22" value="Esta&amp;nbsp;&lt;div&gt;registrado?&lt;/div&gt;" style="rhombus;whiteSpace=wrap;html=1;" parent="6vr_r3bITFx_196oS220-13" vertex="1">
          <mxGeometry x="487.5" y="60" width="110" height="100" as="geometry" />
        </mxCell>
        <mxCell id="igWhySHWdOsPGfB4_8ew-24" value="Desea&amp;nbsp;&lt;div&gt;acceder?&lt;/div&gt;" style="rhombus;whiteSpace=wrap;html=1;" parent="6vr_r3bITFx_196oS220-13" vertex="1">
          <mxGeometry x="322.5" y="60" width="110" height="100" as="geometry" />
        </mxCell>
        <mxCell id="igWhySHWdOsPGfB4_8ew-30" value="Verificar datos" style="shape=ext;rounded=1;html=1;whiteSpace=wrap;" parent="6vr_r3bITFx_196oS220-13" vertex="1">
          <mxGeometry x="827.5" y="123" width="120" height="80" as="geometry" />
        </mxCell>
        <mxCell id="igWhySHWdOsPGfB4_8ew-36" style="edgeStyle=orthogonalEdgeStyle;rounded=0;orthogonalLoop=1;jettySize=auto;html=1;entryX=0;entryY=0.5;entryDx=0;entryDy=0;" parent="6vr_r3bITFx_196oS220-13" source="igWhySHWdOsPGfB4_8ew-34" target="igWhySHWdOsPGfB4_8ew-17" edge="1">
          <mxGeometry relative="1" as="geometry" />
        </mxCell>
        <mxCell id="igWhySHWdOsPGfB4_8ew-34" value="" style="shape=cylinder3;whiteSpace=wrap;html=1;boundedLbl=1;backgroundOutline=1;size=15;" parent="6vr_r3bITFx_196oS220-13" vertex="1">
          <mxGeometry x="1002.5" y="123" width="60" height="80" as="geometry" />
        </mxCell>
        <mxCell id="igWhySHWdOsPGfB4_8ew-35" style="edgeStyle=orthogonalEdgeStyle;rounded=0;orthogonalLoop=1;jettySize=auto;html=1;entryX=0;entryY=0.5;entryDx=0;entryDy=0;entryPerimeter=0;" parent="6vr_r3bITFx_196oS220-13" source="igWhySHWdOsPGfB4_8ew-30" target="igWhySHWdOsPGfB4_8ew-34" edge="1">
          <mxGeometry relative="1" as="geometry" />
        </mxCell>
        <mxCell id="igWhySHWdOsPGfB4_8ew-39" value="Si" style="text;html=1;align=center;verticalAlign=middle;resizable=0;points=[];autosize=1;strokeColor=none;fillColor=none;" parent="6vr_r3bITFx_196oS220-13" vertex="1">
          <mxGeometry x="1217.5" y="138" width="30" height="30" as="geometry" />
        </mxCell>
        <mxCell id="igWhySHWdOsPGfB4_8ew-41" value="No" style="text;html=1;align=center;verticalAlign=middle;resizable=0;points=[];autosize=1;strokeColor=none;fillColor=none;" parent="6vr_r3bITFx_196oS220-13" vertex="1">
          <mxGeometry x="1167.5" y="205" width="40" height="30" as="geometry" />
        </mxCell>
        <mxCell id="6vr_r3bITFx_196oS220-28" style="edgeStyle=orthogonalEdgeStyle;rounded=0;orthogonalLoop=1;jettySize=auto;html=1;entryX=0;entryY=0.5;entryDx=0;entryDy=0;" edge="1" parent="6vr_r3bITFx_196oS220-13" source="6vr_r3bITFx_196oS220-23" target="6vr_r3bITFx_196oS220-27">
          <mxGeometry relative="1" as="geometry" />
        </mxCell>
        <mxCell id="6vr_r3bITFx_196oS220-23" value="" style="shape=cylinder3;whiteSpace=wrap;html=1;boundedLbl=1;backgroundOutline=1;size=15;" vertex="1" parent="6vr_r3bITFx_196oS220-13">
          <mxGeometry x="1702.5" y="160" width="60" height="80" as="geometry" />
        </mxCell>
        <mxCell id="6vr_r3bITFx_196oS220-25" value="Verificar datos" style="shape=ext;rounded=1;html=1;whiteSpace=wrap;" vertex="1" parent="6vr_r3bITFx_196oS220-13">
          <mxGeometry x="1542.5" y="160" width="120" height="80" as="geometry" />
        </mxCell>
        <mxCell id="6vr_r3bITFx_196oS220-26" style="edgeStyle=orthogonalEdgeStyle;rounded=0;orthogonalLoop=1;jettySize=auto;html=1;entryX=0;entryY=0.5;entryDx=0;entryDy=0;entryPerimeter=0;" edge="1" parent="6vr_r3bITFx_196oS220-13" source="6vr_r3bITFx_196oS220-25" target="6vr_r3bITFx_196oS220-23">
          <mxGeometry relative="1" as="geometry" />
        </mxCell>
        <mxCell id="6vr_r3bITFx_196oS220-27" value="Respuesta&lt;div&gt;Satisfactoria&lt;/div&gt;" style="rhombus;whiteSpace=wrap;html=1;" vertex="1" parent="6vr_r3bITFx_196oS220-13">
          <mxGeometry x="1802.5" y="150" width="110" height="100" as="geometry" />
        </mxCell>
        <mxCell id="6vr_r3bITFx_196oS220-29" value="Si" style="text;html=1;align=center;verticalAlign=middle;resizable=0;points=[];autosize=1;strokeColor=none;fillColor=none;" vertex="1" parent="6vr_r3bITFx_196oS220-13">
          <mxGeometry x="1902.5" y="168" width="30" height="30" as="geometry" />
        </mxCell>
        <mxCell id="6vr_r3bITFx_196oS220-30" value="No" style="text;html=1;align=center;verticalAlign=middle;resizable=0;points=[];autosize=1;strokeColor=none;fillColor=none;" vertex="1" parent="6vr_r3bITFx_196oS220-13">
          <mxGeometry x="1862.5" y="235" width="40" height="30" as="geometry" />
        </mxCell>
        <mxCell id="6vr_r3bITFx_196oS220-14" value="Usuarios" style="swimlane;startSize=20;horizontal=0;html=1;" vertex="1" parent="6vr_r3bITFx_196oS220-11">
          <mxGeometry y="710" width="2152.5" height="420" as="geometry" />
        </mxCell>
        <mxCell id="6vr_r3bITFx_196oS220-19" value="Agendar cita" style="html=1;whiteSpace=wrap;rounded=1;" vertex="1" parent="6vr_r3bITFx_196oS220-14">
          <mxGeometry x="1272.5" y="70" width="120" height="80" as="geometry" />
        </mxCell>
        <mxCell id="6vr_r3bITFx_196oS220-32" value="" style="points=[[0.145,0.145,0],[0.5,0,0],[0.855,0.145,0],[1,0.5,0],[0.855,0.855,0],[0.5,1,0],[0.145,0.855,0],[0,0.5,0]];shape=mxgraph.bpmn.event;html=1;verticalLabelPosition=bottom;labelBackgroundColor=#ffffff;verticalAlign=top;align=center;perimeter=ellipsePerimeter;outlineConnect=0;aspect=fixed;outline=eventInt;symbol=parallelMultiple;" vertex="1" parent="6vr_r3bITFx_196oS220-14">
          <mxGeometry x="1402.5" y="-30" width="50" height="50" as="geometry" />
        </mxCell>
        <mxCell id="6vr_r3bITFx_196oS220-59" style="edgeStyle=orthogonalEdgeStyle;rounded=0;orthogonalLoop=1;jettySize=auto;html=1;entryX=0.5;entryY=1;entryDx=0;entryDy=0;entryPerimeter=0;" edge="1" parent="6vr_r3bITFx_196oS220-14" source="6vr_r3bITFx_196oS220-19" target="6vr_r3bITFx_196oS220-32">
          <mxGeometry relative="1" as="geometry" />
        </mxCell>
        <mxCell id="6vr_r3bITFx_196oS220-20" style="edgeStyle=orthogonalEdgeStyle;rounded=0;orthogonalLoop=1;jettySize=auto;html=1;entryX=0;entryY=0.5;entryDx=0;entryDy=0;" edge="1" parent="6vr_r3bITFx_196oS220-11" source="igWhySHWdOsPGfB4_8ew-17" target="6vr_r3bITFx_196oS220-19">
          <mxGeometry relative="1" as="geometry" />
        </mxCell>
        <mxCell id="6vr_r3bITFx_196oS220-65" value="" style="dashed=1;dashPattern=8 4;endArrow=blockThin;endFill=1;startArrow=oval;startFill=0;endSize=6;startSize=4;html=1;rounded=0;entryX=0;entryY=0.5;entryDx=0;entryDy=0;" edge="1" parent="6vr_r3bITFx_196oS220-11" source="6vr_r3bITFx_196oS220-32" target="6vr_r3bITFx_196oS220-25">
          <mxGeometry width="160" relative="1" as="geometry">
            <mxPoint x="952.5" y="880" as="sourcePoint" />
            <mxPoint x="1112.5" y="880" as="targetPoint" />
            <Array as="points">
              <mxPoint x="1427.5" y="460" />
            </Array>
          </mxGeometry>
        </mxCell>
      </root>
    </mxGraphModel>
  </diagram>
</mxfile>
